#!OML:ASF F:\VICON\USERDATA\INSTALL\rory3\rory3.ASF
:FULLY-SPECIFIED
:DEGREES
3735
root -8.28679 18.0887 2.82218 151.46 76.9277 504.833
lowerback 8.98259 -1.05099 1.36868
upperback 4.32569 -1.12037 0.0800218
thorax -0.581419 -0.472082 -0.582707
lowerneck -6.41914 12.1277 -0.440186
upperneck 33.5642 16.5011 9.30442
head 11.0185 8.95171 5.24326
rclavicle 1.31198e-014 -1.59028e-015
rhumerus 17.4186 -37.4265 -56.6538
rradius 52.3278
rwrist 2.6271
rhand -33.9821 -2.33593
rfingers 7.12502
rthumb -7.16231 327.805
lclavicle 1.31198e-014 -1.59028e-015
lhumerus 15.9153 -50.7487 98.7791
lradius 51.9677
lwrist 32.7723
lhand -19.9445 25.3107
lfingers 7.12502
lthumb 6.39337 55.1943
rfemur -20.9427 17.2043 3.09727
rtibia 43.0271
rfoot -27.1434 -34.197
rtoes -6.05283
lfemur -25.1435 -2.03169 -16.6594
ltibia 46.9783
lfoot -10.3575 -0.0473367
ltoes -14.4464
3736
root -8.32871 18.092 2.80001 153.245 76.8948 506.55
lowerback 8.94981 -1.06363 1.5762
upperback 4.33119 -1.1174 0.2666
thorax -0.5578 -0.46885 -0.507728
lowerneck -6.59728 12.3942 -0.619517
upperneck 33.6201 16.7742 9.77791
head 10.9845 9.10926 5.4653
rclavicle -4.25399e-014 -4.77083e-015
rhumerus 16.8635 -36.1995 -57.1238
rradius 51.7135
rwrist 2.16861
rhand -33.7668 -3.36818
rfingers 7.12502
rthumb -6.95447 326.766
lclavicle -4.25399e-014 -4.77083e-015
lhumerus 14.6249 -50.4246 98.9619
lradius 51.1382
lwrist 33.5287
lhand -19.8597 25.6932
lfingers 7.12502
lthumb 6.47527 55.5742
rfemur -21.0511 16.9447 3.32038
rtibia 42.8716
rfoot -27.0135 -34.2397
rtoes -6.31835
lfemur -24.8966 -1.97426 -16.527
ltibia 47.073
lfoot -10.6241 -0.146788
ltoes -16.2812
3737
root -8.36815 18.0956 2.77838 154.174 76.8101 507.367
lowerback 8.85741 -1.05468 1.5788
upperback 4.34683 -1.10598 0.341106
thorax -0.489278 -0.463138 -0.435018
lowerneck -6.80114 12.5749 -0.564902
upperneck 33.6399 16.9293 10.077
head 10.993 9.21649 5.58942
rclavicle -2.66371e-014 -7.95139e-015
rhumerus 16.2299 -34.8644 -57.6284
rradius 51.1749
rwrist 1.77582
rhand -33.8285 -3.47649
rfingers 7.12502
rthumb -7.01404 326.66
lclavicle -2.66371e-014 -7.95139e-015
lhumerus 13.3783 -49.8852 99.0885
lradius 50.2153
lwrist 34.3128
lhand -19.3569 26.1571
lfingers 7.12502
lthumb 6.96062 56.0227
rfemur -21.2354 16.6777 3.31334
rtibia 42.7441
rfoot -26.553 -34.4568
rtoes -7.09722
lfemur -24.596 -2.00566 -16.6166
ltibia 46.9255
lfoot -11.0141 -0.123759
ltoes -17.1482
3738
root -8.40532 18.0974 2.75378 155.275 76.7751 508.387
lowerback 8.76029 -0.946192 1.7542
upperback 4.38011 -0.950599 0.334365
thorax -0.401322 -0.381996 -0.556115
lowerneck -6.8851 12.5011 -0.0613983
upperneck 33.3737 16.7505 9.91267
head 10.9912 9.16711 5.438
rclavicle 3.97569e-016 2.38542e-014
rhumerus 15.229 -33.5147 -57.7295
rradius 50.6914
rwrist 1.32224
rhand -34.0328 -3.81775
rfingers 7.12502
rthumb -7.21126 326.325
lclavicle 3.97569e-016 2.38542e-014
lhumerus 12.1705 -49.5429 99.1449
lradius 49.2916
lwrist 35.4135
lhand -18.9093 26.5597
lfingers 7.12502
lthumb 7.39268 56.4105
rfemur -21.3675 16.4694 3.37026
rtibia 42.6241
rfoot -26.2938 -34.524
rtoes -7.03216
lfemur -24.2209 -2.08081 -16.6402
ltibia 46.5254
lfoot -11.5661 0.180037
ltoes -18.2619
3739
root -8.44222 18.097 2.72991 156.462 76.7084 509.569
lowerback 8.81088 -0.874595 1.94886
upperback 4.37852 -0.839014 0.314972
thorax -0.431042 -0.323253 -0.694797
lowerneck -6.6832 12.3165 0.451444
upperneck 32.7653 16.438 9.5647
head 10.8295 9.03935 5.15196
rclavicle -1.47101e-014 -7.95139e-015
rhumerus 14.165 -31.9625 -57.9611
rradius 50.2915
rwrist 1.0415
rhand -34.2211 -4.55757
rfingers 7.12502
rthumb -7.39303 325.592
lclavicle -1.47101e-014 -7.95139e-015
lhumerus 10.9586 -49.0259 99.1292
lradius 48.26
lwrist 36.3391
lhand -18.7305 26.8496
lfingers 7.12502
lthumb 7.56528 56.6943
rfemur -21.3937 16.3105 3.4788
rtibia 42.5181
rfoot -26.3557 -34.4717
rtoes -6.26376
lfemur -23.7352 -2.21921 -16.6061
ltibia 45.828
lfoot -12.3372 0.758662
ltoes -19.294
3740
root -8.48042 18.0985 2.70583 157.548 76.5275 510.604
lowerback 8.87655 -0.87871 2.01105
upperback 4.31427 -0.839054 0.314273
thorax -0.534367 -0.324529 -0.729308
lowerneck -6.94472 12.4853 0.451396
upperneck 32.9007 16.5353 10.1038
head 10.8668 9.14714 5.37591
rclavicle -2.54444e-014 -4.77083e-015
rhumerus 13.2662 -30.3124 -58.47
rradius 49.8692
rwrist 1.11174
rhand -34.2152 -4.8359
rfingers 7.12502
rthumb -7.38728 325.313
lclavicle -2.54444e-014 -4.77083e-015
lhumerus 9.72212 -48.1684 99.0308
lradius 47.2086
lwrist 37.1779
lhand -18.5265 27.1653
lfingers 7.12502
lthumb 7.76217 57.0028
rfemur -21.4415 16.0305 3.50979
rtibia 42.422
rfoot -26.3846 -34.4307
rtoes -5.79377
lfemur -23.3244 -2.42727 -16.6265
ltibia 44.8809
lfoot -13.1331 1.32096
ltoes -19.3335
